<svg width="20" height="15" viewBox="0 0 20 15" fill="none" xmlns="http://www.w3.org/2000/svg">
<path d="M7 9.69118C4.66 9.69118 0 10.8612 0 13.1912V14.9412H14V13.1912C14 10.8612 9.34 9.69118 7 9.69118ZM2.34 12.9412C3.18 12.3612 5.21 11.6912 7 11.6912C8.79 11.6912 10.82 12.3612 11.66 12.9412H2.34ZM7 7.94118C8.93 7.94118 10.5 6.37118 10.5 4.44118C10.5 2.51118 8.93 0.941177 7 0.941177C5.07 0.941177 3.5 2.51118 3.5 4.44118C3.5 6.37118 5.07 7.94118 7 7.94118ZM7 2.94118C7.83 2.94118 8.5 3.61118 8.5 4.44118C8.5 5.27118 7.83 5.94118 7 5.94118C6.17 5.94118 5.5 5.27118 5.5 4.44118C5.5 3.61118 6.17 2.94118 7 2.94118ZM14.04 9.75118C15.2 10.5912 16 11.7112 16 13.1912V14.9412H20V13.1912C20 11.1712 16.5 10.0212 14.04 9.75118ZM13 7.94118C14.93 7.94118 16.5 6.37118 16.5 4.44118C16.5 2.51118 14.93 0.941177 13 0.941177C12.46 0.941177 11.96 1.07118 11.5 1.29118C12.13 2.18118 12.5 3.27118 12.5 4.44118C12.5 5.61118 12.13 6.70118 11.5 7.59118C11.96 7.81118 12.46 7.94118 13 7.94118Z" fill="#42446F"/>
</svg>
