<svg width="22" height="20" viewBox="0 0 22 20" fill="none" xmlns="http://www.w3.org/2000/svg">
<path d="M11 0.44117C9.72999 0.44117 8.59999 1.24117 8.17999 2.44117H1.99999V4.44117H3.94999L0.999993 11.4412C0.529993 13.4412 1.99999 14.4412 4.49999 14.4412C6.99999 14.4412 8.55999 13.4412 7.99999 11.4412L5.04999 4.44117H8.16999C8.49999 5.29117 9.14999 5.94117 9.99999 6.27117V17.4412H0.999993V19.4412H21V17.4412H12V6.26117C12.85 5.94117 13.5 5.29117 13.82 4.44117H16.95L14 11.4412C13.53 13.4412 15 14.4412 17.5 14.4412C20 14.4412 21.56 13.4412 21 11.4412L18.05 4.44117H20V2.44117H13.83C13.4 1.24117 12.27 0.44117 11 0.44117ZM11 2.44117C11.2652 2.44117 11.5196 2.54653 11.7071 2.73406C11.8946 2.9216 12 3.17595 12 3.44117C12 3.70639 11.8946 3.96074 11.7071 4.14828C11.5196 4.33581 11.2652 4.44117 11 4.44117C10.7348 4.44117 10.4804 4.33581 10.2929 4.14828C10.1054 3.96074 9.99999 3.70639 9.99999 3.44117C9.99999 3.17595 10.1054 2.9216 10.2929 2.73406C10.4804 2.54653 10.7348 2.44117 11 2.44117ZM4.49999 7.69117L5.99999 11.4412H2.99999L4.49999 7.69117ZM17.5 7.69117L19 11.4412H16L17.5 7.69117Z" fill="#42446E"/>
</svg>
