<svg width="50" height="14" viewBox="0 0 50 14" fill="none" xmlns="http://www.w3.org/2000/svg">
<path d="M0.764709 13.6471H6.53228C9.56437 13.6471 11.1793 12.0754 11.1793 9.94048C11.1793 7.95622 9.74893 6.75781 8.21311 6.68577V6.5548C9.61711 6.24046 10.652 5.25161 10.652 3.67337C10.652 1.66291 9.14911 0.235291 6.16975 0.235291H0.764709V13.6471ZM3.61883 11.3288V7.76631H6.01155C7.38258 7.76631 8.23289 8.55216 8.23289 9.65889C8.23289 10.6674 7.54078 11.3288 5.94564 11.3288H3.61883ZM3.61883 5.84754V2.52734H5.78744C7.05301 2.52734 7.77148 3.17566 7.77148 4.14487C7.77148 5.20576 6.9014 5.84754 5.73471 5.84754H3.61883Z" fill="#171948"/>
<path d="M14.4809 13.6471L15.4828 10.5888H20.3539L21.3558 13.6471H24.4143L19.7607 0.235291H16.0826L11.4224 13.6471H14.4809ZM16.2079 8.37534L17.8689 3.30009H17.9744L19.6355 8.37534H16.2079Z" fill="#171948"/>
<path d="M36.8009 0.235291H33.96V8.67003H33.8414L28.0145 0.235291H25.5097V13.6471H28.3638V5.20576H28.4627L34.3357 13.6471H36.8009V0.235291Z" fill="#171948"/>
<path d="M38.6297 13.6471H41.4838V9.8357L42.8878 8.13304L46.5856 13.6471H50L44.9311 6.24046L49.9407 0.235291H46.5197L41.6617 6.14878H41.4838V0.235291H38.6297V13.6471Z" fill="#171948"/>
</svg>
