<svg width="69" height="20" viewBox="0 0 69 20" fill="none" xmlns="http://www.w3.org/2000/svg">
<path d="M0.904 20V0.399999H8.772C10.8067 0.399999 12.356 0.875999 13.42 1.828C14.5027 2.76133 15.044 3.96533 15.044 5.44C15.044 6.672 14.708 7.66133 14.036 8.408C13.3827 9.136 12.58 9.63067 11.628 9.892C12.748 10.116 13.672 10.676 14.4 11.572C15.128 12.4493 15.492 13.476 15.492 14.652C15.492 16.2013 14.932 17.48 13.812 18.488C12.692 19.496 11.1053 20 9.052 20H0.904ZM4.488 8.632H8.24C9.248 8.632 10.0227 8.39867 10.564 7.932C11.1053 7.46533 11.376 6.80267 11.376 5.944C11.376 5.12267 11.1053 4.47867 10.564 4.012C10.0413 3.52667 9.248 3.284 8.184 3.284H4.488V8.632ZM4.488 17.088H8.492C9.556 17.088 10.3773 16.8453 10.956 16.36C11.5533 15.856 11.852 15.156 11.852 14.26C11.852 13.3453 11.544 12.6267 10.928 12.104C10.312 11.5813 9.48133 11.32 8.436 11.32H4.488V17.088ZM18.0081 20V0.399999H25.8761C27.9107 0.399999 29.4601 0.875999 30.5241 1.828C31.6067 2.76133 32.1481 3.96533 32.1481 5.44C32.1481 6.672 31.8121 7.66133 31.1401 8.408C30.4867 9.136 29.6841 9.63067 28.7321 9.892C29.8521 10.116 30.7761 10.676 31.5041 11.572C32.2321 12.4493 32.5961 13.476 32.5961 14.652C32.5961 16.2013 32.0361 17.48 30.9161 18.488C29.7961 19.496 28.2094 20 26.1561 20H18.0081ZM21.5921 8.632H25.3441C26.3521 8.632 27.1267 8.39867 27.6681 7.932C28.2094 7.46533 28.4801 6.80267 28.4801 5.944C28.4801 5.12267 28.2094 4.47867 27.6681 4.012C27.1454 3.52667 26.3521 3.284 25.2881 3.284H21.5921V8.632ZM21.5921 17.088H25.5961C26.6601 17.088 27.4814 16.8453 28.0601 16.36C28.6574 15.856 28.9561 15.156 28.9561 14.26C28.9561 13.3453 28.6481 12.6267 28.0321 12.104C27.4161 11.5813 26.5854 11.32 25.5401 11.32H21.5921V17.088ZM40.1946 20L33.0266 0.399999H36.8626L42.4066 16.332L47.9786 0.399999H51.7586L44.5906 20H40.1946ZM49.7804 20L56.9484 0.399999H60.9804L68.1484 20H64.3404L62.7724 15.464H55.1284L53.5324 20H49.7804ZM56.1084 12.664H61.7924L58.9364 4.516L56.1084 12.664Z" fill="#090A25"/>
</svg>
