<svg width="22" height="19" viewBox="0 0 22 19" fill="none" xmlns="http://www.w3.org/2000/svg">
<path d="M3.57501 18.9412H10.6366H15.95C17.1909 18.9412 18.2 17.9545 18.2 16.7412V7.94118C18.2 6.72788 17.1909 5.74118 15.95 5.74118H2.45001C1.20914 5.74118 0.200012 6.72788 0.200012 7.94118V16.7412C0.200012 17.9545 1.20914 18.9412 2.45001 18.9412H3.57501ZM2.45001 7.94118H15.95V16.7412H10.0134H5.82501H2.45001V7.94118Z" fill="#42446F"/>
<path d="M19.55 0.941182H6.04999C4.80911 0.941182 3.79999 1.92788 3.79999 3.14118H17.3C18.5409 3.14118 19.55 4.12788 19.55 5.34118V14.1412C20.7909 14.1412 21.8 13.1545 21.8 11.9412V3.14118C21.8 1.92788 20.7909 0.941182 19.55 0.941182Z" fill="#42446F"/>
<line x1="1.39999" y1="14.3412" x2="17" y2="14.3412" stroke="#42446F" stroke-width="2"/>
</svg>
