<svg width="21" height="20" viewBox="0 0 21 20" fill="none" xmlns="http://www.w3.org/2000/svg">
<path d="M10.5 0C4.986 0 0.5 4.486 0.5 10C0.5 15.514 4.986 20 10.5 20C16.014 20 20.5 15.514 20.5 10C20.5 4.486 16.014 0 10.5 0ZM18.431 9H11.5V2.069C13.2598 2.29335 14.8953 3.09574 16.1498 4.3502C17.4043 5.60466 18.2066 7.24017 18.431 9ZM2.5 10C2.5 5.928 5.561 2.564 9.5 2.069V10C9.50296 10.1526 9.54093 10.3024 9.611 10.438C9.626 10.468 9.633 10.501 9.652 10.531L13.854 17.254C12.8038 17.7442 11.659 17.9988 10.5 18C6.089 18 2.5 14.411 2.5 10ZM15.552 16.196L12.305 11H18.431C18.1746 13.0376 17.1436 14.8982 15.552 16.196Z" fill="#090A25
"/>
</svg>
