<svg width="20" height="21" viewBox="0 0 20 21" fill="none" xmlns="http://www.w3.org/2000/svg">
<path fill-rule="evenodd" clip-rule="evenodd" d="M1.00046 11.4412H2.00046V13.4412V18.4412C2.00046 19.5442 2.89746 20.4412 4.00046 20.4412H16.0005C17.1035 20.4412 18.0005 19.5442 18.0005 18.4412V13.4412V11.4412H19.0005C19.4045 11.4412 19.7705 11.1972 19.9245 10.8242C20.0795 10.4502 19.9935 10.0202 19.7075 9.7342L10.7075 0.734198C10.3165 0.343198 9.68446 0.343198 9.29346 0.734198L0.293464 9.7342C0.0074639 10.0202 -0.0785361 10.4502 0.0764639 10.8242C0.231463 11.1972 0.596463 11.4412 1.00046 11.4412ZM10.0007 2.85537L16.0007 8.85537V13.4414L16.0017 18.4414H4.0007V13.4414V10.4414V8.85637L10.0007 2.85537Z" fill="#42446F"/>
<path fill-rule="evenodd" clip-rule="evenodd" d="M10.0001 15.4414C12.2061 15.4414 14.0001 13.6474 14.0001 11.4414C14.0001 9.23538 12.2061 7.44138 10.0001 7.44138C7.79406 7.44138 6.00006 9.23538 6.00006 11.4414C6.00006 13.6474 7.79406 15.4414 10.0001 15.4414ZM10 9.44135C11.103 9.44135 12 10.3383 12 11.4413C12 12.5443 11.103 13.4413 10 13.4413C8.89701 13.4413 8.00001 12.5443 8.00001 11.4413C8.00001 10.3383 8.89701 9.44135 10 9.44135Z" fill="#42446F"/>
</svg>