<svg width="22" height="23" viewBox="0 0 22 23" fill="none" xmlns="http://www.w3.org/2000/svg">
<path fill-rule="evenodd" clip-rule="evenodd" d="M11 20.6731C16.0545 20.6722 20.1666 16.56 20.1666 11.5055C20.1666 6.45193 16.0545 2.33976 11 2.33885C5.94546 2.33884 1.83329 6.45101 1.83329 11.5055C1.83329 16.56 5.94454 20.6722 11 20.6731ZM10.9999 4.17214C15.0434 4.17305 18.3333 7.46297 18.3333 11.5055C18.3333 15.5489 15.0434 18.8388 10.9999 18.8397C6.95653 18.8388 3.66661 15.5489 3.66662 11.5055C3.66662 7.46205 6.95653 4.17214 10.9999 4.17214Z" fill="#FF0F0F"/>
<path fill-rule="evenodd" clip-rule="evenodd" d="M10.0833 15.1666L11.9167 15.1666L11.9167 11.5L14.6749 11.5L11.0037 7.82871L7.33334 11.5L10.0833 11.5L10.0833 15.1666Z" fill="#FF0F0F"/>
</svg>
