<svg width="16" height="17" viewBox="0 0 16 17" fill="none" xmlns="http://www.w3.org/2000/svg">
<path d="M15.924 6.82417C15.9997 6.6414 16.0195 6.44028 15.9809 6.24625C15.9422 6.05223 15.8469 5.87402 15.707 5.73417L10.707 0.734173L9.29299 2.14817L12.586 5.44117H-6.21703e-06V7.44117H15C15.1978 7.44122 15.3911 7.38263 15.5556 7.27281C15.72 7.16298 15.8482 7.00686 15.924 6.82417ZM0.075994 10.0582C0.000289194 10.2409 -0.019502 10.4421 0.019125 10.6361C0.0577519 10.8301 0.153061 11.0083 0.292994 11.1482L5.29299 16.1482L6.70699 14.7342L3.41399 11.4412H16V9.44117H0.999994C0.802198 9.44099 0.6088 9.49953 0.444306 9.60937C0.279813 9.71921 0.151628 9.87541 0.075994 10.0582Z" fill="#42446E"/>
</svg>
