<svg width="20" height="19" viewBox="0 0 20 19" fill="none" xmlns="http://www.w3.org/2000/svg">
<path fill-rule="evenodd" clip-rule="evenodd" d="M10 0.326904C4.94551 0.327821 0.833344 4.43999 0.833344 9.49449C0.833344 14.5481 4.94551 18.6602 10 18.6612C15.0545 18.6612 19.1667 14.549 19.1667 9.49449C19.1667 4.43999 15.0554 0.327821 10 0.326904ZM10 16.8279C5.9566 16.8269 2.66669 13.537 2.66669 9.49453C2.66669 5.45111 5.9566 2.1612 10 2.16028C14.0434 2.16119 17.3334 5.45111 17.3334 9.49453C17.3334 13.5379 14.0434 16.8279 10 16.8279Z" fill="#20F14E"/>
<path fill-rule="evenodd" clip-rule="evenodd" d="M10.9167 5.83337L9.08332 5.83337V9.50004H6.32507L9.99632 13.1713L13.6667 9.50004H10.9167V5.83337Z" fill="#20F14E"/>
</svg>
